<svg width="68" height="60" viewBox="0 0 68 60" fill="none" xmlns="http://www.w3.org/2000/svg">
<path d="M63.1666 25.8333H13.75L28.875 7.66667C29.5822 6.81577 29.9225 5.71877 29.8209 4.61699C29.7193 3.51522 29.1842 2.49892 28.3333 1.79168C27.4824 1.08443 26.3854 0.744174 25.2836 0.845756C24.1818 0.947338 23.1655 1.48244 22.4583 2.33334L1.62496 27.3333C1.4848 27.5322 1.35946 27.7411 1.24996 27.9583C1.24996 28.1667 1.24996 28.2917 0.958293 28.5C0.769433 28.9778 0.670547 29.4863 0.666626 30C0.670547 30.5137 0.769433 31.0223 0.958293 31.5C0.958293 31.7083 0.958292 31.8333 1.24996 32.0417C1.35946 32.2589 1.4848 32.4678 1.62496 32.6667L22.4583 57.6667C22.85 58.137 23.3406 58.5153 23.8951 58.7745C24.4497 59.0338 25.0545 59.1677 25.6666 59.1667C26.6402 59.1686 27.5837 58.8295 28.3333 58.2083C28.7552 57.8586 29.104 57.429 29.3596 56.9442C29.6152 56.4594 29.7727 55.929 29.823 55.3832C29.8733 54.8375 29.8155 54.2872 29.6528 53.7638C29.4901 53.2405 29.2258 52.7544 28.875 52.3333L13.75 34.1667H63.1666C64.2717 34.1667 65.3315 33.7277 66.1129 32.9463C66.8943 32.1649 67.3333 31.1051 67.3333 30C67.3333 28.8949 66.8943 27.8351 66.1129 27.0537C65.3315 26.2723 64.2717 25.8333 63.1666 25.8333Z" fill="black"/>
</svg>
